<svg width="512" height="512" viewBox="0 0 512 512" fill="none" xmlns="http://www.w3.org/2000/svg">
<g clip-path="url(#clip0_1350_47)">
<rect width="512" height="512" rx="120" fill="#9D00F2"/>
<path d="M355.025 256.071C355.025 279.545 350.73 299.727 342.142 316.618C333.554 333.436 321.781 346.39 306.823 355.479C291.937 364.497 275.011 369.006 256.045 369.006C237.008 369.006 220.01 364.497 205.053 355.479C190.166 346.39 178.429 333.4 169.841 316.51C161.253 299.62 156.958 279.474 156.958 256.071C156.958 232.596 161.253 212.45 169.841 195.631C178.429 178.741 190.166 165.787 205.053 156.769C220.01 147.68 237.008 143.135 256.045 143.135C275.011 143.135 291.937 147.68 306.823 156.769C321.781 165.787 333.554 178.741 342.142 195.631C350.73 212.45 355.025 232.596 355.025 256.071ZM322.175 256.071C322.175 238.178 319.276 223.113 313.479 210.875C307.754 198.565 299.881 189.261 289.861 182.963C279.913 176.594 268.641 173.409 256.045 173.409C243.378 173.409 232.07 176.594 222.122 182.963C212.174 189.261 204.301 198.565 198.504 210.875C192.779 223.113 189.916 238.178 189.916 256.071C189.916 273.963 192.779 289.064 198.504 301.374C204.301 313.612 212.174 322.916 222.122 329.285C232.07 335.583 243.378 338.732 256.045 338.732C268.641 338.732 279.913 335.583 289.861 329.285C299.881 322.916 307.754 313.612 313.479 301.374C319.276 289.064 322.175 273.963 322.175 256.071Z" fill="white"/>
</g>
<defs>
<clipPath id="clip0_1350_47">
<rect width="512" height="512" rx="120" fill="white"/>
</clipPath>
</defs>
</svg>
